**ABCDEFGHIJKLMNOPQRSTUVWXYZabcdefghijklmnopqrstuvwxyz**************************
**PARASOLID !"#$%&'()*+,-./:;<=>?@[\]^_`{|}~0123456789**************************
**PART1;
MC=;
MC_MODEL=;
MC_ID=unknown;
OS=Windows;
OS_RELEASE=;
FRU=;
APPL=Autodesk Inventor 2021;
SITE=unknown;
USER=unknown;
FORMAT=text;
GUISE=transmit;
KEY=Ensamblaje-Bisagra;
FILE=C:\Users\yelit\OneDrive\Documentos\Inventor\Projects\Gavera\Ensamblaje-Bisagra.x_t;
DATE=2020-Dec-05 09:24:56;
**PART2;
SCH=SCH_3200152_32001;
USFLD_SIZE=0;
**PART3;
**END_OF_HEADER*****************************************************************
T51 : TRANSMIT FILE created by modeller version 320015217 SCH_3200152_320010 10
 1 10 2 3 0 0 0 0 0 0 0 1e3 1e-8 0 0 0 1 0 1 4 0 81 1 2 1 5 1 0 0 0 6 7 70 3 0 4
 T1 0 0 1 20 1 8 8 11 4 8 9 1 10 11 1 12 0 12 0 81 1 9 10 5 4 0 0 13 0 14 12 10
 323 15 16 0 0 0 0 0 0 1e3 1e-8 4 17 0 1 0 1 1 18 19 20 21 0 0 22 23 24 0 0 0 0
 0 0 0 100 11 9 4 0 0 264741118198411e-29 .683100486880935 .730324396979199 1 -8
91641992437775e-31 -354158109022066e-29 -23541369770132e-28 .730324396979199 -.6
83100486880935 -.03788203561187615 .0171878413309158 .018812234501062 1 3 ?11 12
 5 13 1 10 25 1 26 4 0 4 81 1 13 7 5 12 0 0 6 9 27 100 25 6 12 0 0 -327074142600
5945e-30 .2131756543499015 -.977013889559658 -1 -2724010941986105e-31 3288256368
54813e-29 434836550472187e-30 .977013889559658 .2131756543499015 .01214386380577
696 -.002812158669083985 -.00744912239883504 1 3 ?11 26 2 6 1 17 28 1 0 12 0 0 8
1 1 6 4 5 26 0 0 2 13 29 12 17 100 30 31 0 0 0 0 0 0 1e3 1e-8 26 0 10 1 0 1 1 32
 33 34 35 0 0 36 37 38 0 0 0 0 0 0 0 100 28 3 26 0 0 1 0 0 0 1 0 0 0 1 -.0136191
7957350874 .00718784133091615 .004252684319344595 1 1 ?81 1 30 100 5 17 39 0 0 0
 40 70 31 0 4 T17 0 0 6 20 1 41 41 13 32 45 0 17 0 42 0 0 43 0 51 33 70 0 42 44
 0 0 +0 0 0 0 1 0 .004 -1 0 0 31 34 61 0 37 45 0 0 +0 .04 0 0 1 0 -1 0 0 .004 29
 35 53 0 38 46 0 -.004 .04 0 19 36 1 0 17 43 0 47 V0 16 37 39 0 ?48 0 49 34 0 0
 17 18 38 40 0 48 0 50 35 ?17 17 48 0 51 48 48 38 52 37 0 52 +18 50 35 0 53 38 5
4 46 ?17 17 53 0 55 53 53 50 56 49 0 56 +18 54 30 0 57 50 58 59 ?17 29 46 52 0 5
0 59 35 0 .0400881345849541 -.004010489299304165 29 59 51 0 54 60 46 0 .04198822
039754575 -.003753037400247625 29 60 50 0 58 61 59 0 .044 -.002 18 58 25 0 62 54
 63 60 ?17 29 61 49 0 63 64 60 0 -.04 -.004 18 63 21 0 65 58 66 61 ?17 29 64 48
 0 66 67 61 0 -.0400881345849541 -.004010489299304165 18 66 16 0 68 63 69 64 ?17
 29 67 47 0 69 70 64 0 -.04198822039754575 -.003753037400247625 18 69 11 0 71 66
 72 67 ?17 29 70 46 0 72 0 67 0 -.044 -.002 18 72 6 0 73 69 0 70 ?17 17 73 0 74
 73 73 72 75 76 0 75 +15 74 4 0 73 77 0 17 75 0 78 75 75 72 73 76 0 0 -16 76 5 0
 ?73 79 0 80 0 0 17 16 79 10 0 ?71 81 76 82 0 0 17 31 80 54 0 76 0 82 0 +0 -.044
 -1074140776324836e-32 0 -1 -2685351940812125e-30 1 0 0 .002 31 82 55 0 79 80 83
 0 +0 -.04198822039754575 -533907150331171e-32 0 -1 -2685351940812125e-30 1 0 0
 .00375303740024762 31 83 56 0 81 82 84 0 +0 -.04008813458495415 -23667237875926
5e-33 0 -1 -2685351940812125e-30 1 0 0 .004010489299304165 16 81 15 0 ?68 85 79
 83 0 0 17 31 84 57 0 85 83 86 0 +0 -.04 0 0 -1 0 -1 0 0 .004 16 85 20 0 ?65 87
 81 84 0 0 17 31 86 58 0 87 84 88 0 +0 .044 -1074140776324836e-32 0 -1 268535194
0812125e-30 1 0 0 .002 16 87 24 0 ?62 89 85 86 0 0 17 31 88 59 0 89 86 45 0 +0 .
04198822039754575 -533907150331171e-32 0 -1 2685351940812125e-30 1 0 0 .00375303
740024762 16 89 29 0 ?57 49 87 88 0 0 17 31 45 60 0 49 88 34 0 +0 .0400881345849
5415 -236672378759265e-33 0 -1 2685351940812125e-30 1 0 0 .004010489299304165 16
 49 34 0 ?53 37 89 45 0 0 17 17 57 0 90 57 57 54 91 89 0 91 +15 90 32 0 57 92 0
 17 91 0 93 91 91 54 57 89 0 0 -15 93 28 0 91 94 95 14 94 26 96 ?97 92 93 32 98
 +0 0 97 92 47 15 95 27 0 62 94 0 17 62 0 95 62 62 58 99 87 0 99 +17 99 0 100 99
 99 58 62 87 0 0 -15 100 23 0 99 97 0 14 97 22 101 ?102 94 100 32 103 +0 0 102 9
4 47 81 1 101 87 104 97 105 0 106 96 107 14 102 17 106 ?108 97 109 32 110 +0 0 1
08 97 47 50 103 66 0 97 110 98 0 +0 .044 -.002 0 1 -2685351940812125e-30 0 26853
51940812125e-30 1 13 47 2 0 0 0 0 0 0 36 42 14 42 41 111 ?112 0 113 32 33 +0 0 1
12 0 47 81 1 111 99 104 42 114 0 115 0 116 14 112 36 115 ?92 42 51 32 44 +0 0 92
 42 47 15 113 43 0 52 42 117 17 52 0 113 52 52 38 48 37 0 0 -15 117 42 0 118 42
 0 17 118 0 117 118 118 63 65 85 0 0 -17 65 0 109 65 65 63 118 85 0 118 +15 109
 19 0 65 102 119 15 119 18 0 120 102 0 17 120 0 119 120 120 66 68 81 0 0 -17 68
 0 121 68 68 66 120 81 0 120 +15 121 14 0 68 108 122 14 108 12 123 ?124 102 121
 32 125 +0 0 124 102 47 15 122 13 0 126 108 0 17 126 0 122 126 126 69 71 79 0 0
 -17 71 0 127 71 71 69 126 79 0 126 +15 127 9 0 71 124 78 14 124 7 128 ?77 108 1
27 32 129 +0 0 77 108 47 15 78 8 0 75 124 0 81 1 128 78 104 124 130 0 131 123 13
2 14 77 3 131 ?0 124 74 32 133 +0 0 0 124 47 54 129 63 0 124 133 125 0 +0 -.0405
1676030258075 -1387683281469906e-33 0 1 2685351940812125e-30 3352060516170625e-2
0 .004 0 2685351940812125e-30 -1 50 133 62 0 77 0 129 0 +0 -.044 -.002 0 -1 -268
5351940812125e-30 0 -2685351940812125e-30 1 54 125 64 0 108 129 110 0 +0 -.041 -
2685351940812155e-33 0 1 2685351940812125e-30 .0036 .001 0 2685351940812125e-30
 -1 54 110 65 0 102 125 103 0 +0 -.04051676030258075 -1387683281469906e-33 0 1 2
685351940812125e-30 3352060516170625e-20 .004 0 2685351940812125e-30 -1 81 1 131
 75 104 77 134 0 0 128 135 80 1 104 136 137 8015 0 0 0 0 3 5 0 0 0 FFFFTFFFFFFFF
F2 81 2 134 74 136 77 138 131 0 130 139 140 83 1 135 0 80 2 136 141 142 8014 0 0
 0 0 3 5 0 0 0 FFFFTFFFFFFFFF2 1 81 1 138 73 143 77 0 134 0 144 145 81 2 130 77
 136 124 144 128 134 146 147 148 83 4 139 .72944252070442 0 .72944252070442 .729
44252070442 82 1 140 1 81 1 144 76 143 124 0 130 138 149 150 81 2 146 80 136 108
 149 123 130 151 152 153 83 4 147 .72944252070442 0 .72944252070442 .72944252070
442 82 1 148 1 81 1 149 79 143 108 0 146 144 154 155 81 1 123 81 104 108 146 0 1
28 106 156 81 2 151 83 136 102 154 106 146 105 157 158 83 4 152 .72944252070442
 0 .72944252070442 .72944252070442 82 1 153 1 81 1 154 82 143 102 0 151 149 159
 160 81 1 106 84 104 102 151 0 123 101 161 81 2 105 86 136 97 159 101 151 162 16
3 164 83 4 157 .72944252070442 0 .72944252070442 .72944252070442 82 1 158 1 81 1
 159 85 143 97 0 105 154 165 166 81 2 162 89 136 94 165 96 105 167 168 169 83 4
 163 .72944252070442 0 .72944252070442 .72944252070442 82 1 164 1 81 1 165 88 14
3 94 0 162 159 170 171 81 1 96 90 104 94 162 0 101 172 173 81 2 167 92 136 92 17
0 172 162 174 175 176 83 4 168 .72944252070442 0 .72944252070442 .72944252070442
 82 1 169 1 14 92 31 172 ?94 112 177 32 178 +0 0 94 112 47 81 1 170 91 143 92 0
 167 165 179 180 81 1 172 93 104 92 167 0 96 115 181 81 2 174 95 136 112 179 115
 167 114 182 183 83 4 175 .72944252070442 0 .72944252070442 .72944252070442 82 1
 176 1 81 1 179 94 143 112 0 174 170 184 185 81 1 115 96 104 112 174 0 172 111 1
86 81 2 114 98 136 42 184 111 174 0 187 188 83 4 182 .72944252070442 0 .72944252
070442 .72944252070442 82 1 183 1 81 1 184 97 143 42 0 114 179 0 189 83 4 187 .7
2944252070442 0 .72944252070442 .72944252070442 82 1 188 1 80 1 143 0 190 8001 0
 0 0 0 3 5 0 0 0 FFFFTFTFFFFFFF2 83 3 189 .745098039215686 .737254901960784 .729
411764705882 79 15 190 SDL/TYSA_COLOUR83 1 186 0 83 3 185 .745098039215686 .7372
54901960784 .729411764705882 83 1 181 0 83 3 180 .745098039215686 .7372549019607
84 .729411764705882 15 177 33 0 56 92 90 54 178 68 0 92 98 44 0 +0 .041 -2685351
940812155e-33 0 -1 2685351940812125e-30 .0036 .001 0 -2685351940812125e-30 -1 54
 98 67 0 94 103 178 0 +0 .04051676030258075 -1387683281469906e-33 0 -1 268535194
0812125e-30 3352060516170625e-20 .004 0 -2685351940812125e-30 -1 54 44 69 0 112
 178 33 0 +0 .04051676030258075 -1387683281469906e-33 0 -1 2685351940812125e-30
 3352060516170625e-20 .004 0 -2685351940812125e-30 -1 17 56 0 177 56 56 50 53 49
 0 0 -83 1 173 0 83 3 171 .745098039215686 .737254901960784 .729411764705882 83
 3 166 .745098039215686 .737254901960784 .729411764705882 83 1 161 0 83 3 160 .7
45098039215686 .737254901960784 .729411764705882 83 1 156 0 83 3 155 .7450980392
15686 .737254901960784 .729411764705882 83 3 150 .745098039215686 .7372549019607
84 .729411764705882 83 3 145 .745098039215686 .737254901960784 .729411764705882
 79 21 142 SDL/TYSA_REFLECTIVITY79 21 137 SDL/TYSA_TRANSLUCENCY83 1 132 0 15 51
 38 0 48 112 55 15 55 37 0 53 112 0 83 1 116 0 83 1 107 0 19 43 44 0 17 0 36 32
 S0 74 20 41 6 0 0 191 39 184 114 111 30 0 0 0 0 0 0 0 0 0 0 0 0 0 0 81 1 191 71
 192 17 0 39 0 0 193 81 1 39 72 194 17 191 30 0 0 195 80 1 194 104 196 8041 0 0
 0 0 3 5 0 0 0 TTTFFFFFFFFFFF2 83 1 195 0 79 23 196 SDL/TYSA_TRANSLUCENCY_280 1
 192 143 197 8040 0 0 0 0 3 5 0 0 0 TTTFFFFFFFFFFF2 83 3 193 .745098039215686 .7
37254901960784 .729411764705882 79 17 197 SDL/TYSA_COLOUR_280 1 5 198 199 8017 0
 0 0 0 0 0 0 0 0 TTTTTTTTTTTTTF3 84 7 40 Sólido179 13 199 SDL/TYSA_NAME84 13 29
 Eje-Bisagra:184 23 27 Placa soporte-Bisagra:181 1 15 323 5 10 200 0 0 0 201 70
 16 0 4 T10 0 0 6 20 1 202 202 13 18 148 0 10 0 203 0 0 204 0 50 19 254 0 203 20
5 0 0 +-.09 0 .01025 1665334536937735e-31 0 1 1 0 -1665334536937735e-31 30 20 23
2 0 23 206 0 0 +.03 .003202071404890575 .02475 -439855327835643e-29 0 -1 29 21 1
84 0 24 207 0 .03 .003202071404890575 .02475 19 22 1 0 10 204 0 208 V0 16 23 142
 0 ?209 0 210 20 0 0 10 18 24 138 0 211 0 212 21 ?10 17 211 0 213 214 215 24 209
 23 0 216 -18 212 133 0 209 24 217 207 ?10 17 209 0 218 219 216 212 211 23 0 215
 +18 217 125 0 220 212 221 222 ?10 29 207 183 0 212 222 21 .03 .0032020714048905
75 .0223268985023221 29 222 182 0 217 223 207 .04075 .000500000000000007 1420102
637240162e-32 29 223 181 0 221 224 222 .00875 .000500000000000007 88162512843242
1e-32 18 221 117 0 225 217 226 223 ?10 29 224 180 0 226 227 223 -.02325 .0005000
00000000007 384568966456044e-32 18 226 109 0 228 221 229 224 ?10 29 227 179 0 22
9 230 224 -.05525 .000500000000000007 477766996826615e-32 18 229 101 0 231 226 2
32 227 ?10 29 230 178 0 232 233 227 -.02125 .0025 2927204565199925e-33 18 232 84
 0 234 229 235 230 ?10 29 233 177 0 235 236 230 .04275 .0025 1328254127304112e-3
2 18 235 81 0 237 232 238 233 ?10 29 236 176 0 238 239 233 .01075 .0025 78977661
849637e-31 18 238 78 0 240 235 241 236 ?10 29 239 175 0 241 242 236 -.05325 .002
5 3859184868905635e-33 18 241 75 0 243 238 244 239 ?10 29 242 174 0 244 245 239
 -.07975 .0025 .01025 18 244 71 0 246 241 247 242 ?10 29 245 173 0 247 248 242 -
.07975 .0025 -.01025 18 247 69 0 249 244 250 245 ?10 29 248 172 0 250 251 245 .0
5975 .0025 -.01025 18 250 67 0 252 247 253 248 ?10 29 251 171 0 253 254 248 .059
75 .0025 .01025 18 253 65 0 255 250 256 251 ?10 29 254 170 0 256 257 251 .03 .00
25 .01025 18 256 63 0 258 253 259 254 ?10 29 257 169 0 259 260 254 -.01 .0032020
71404890575 .02475 18 259 58 0 214 256 261 257 ?10 29 260 168 0 261 262 257 -.01
 .003202071404890575 .02232689850232225 18 261 56 0 263 259 264 260 ?10 29 262 1
67 0 264 265 260 -.01 .0025 .01025 18 264 53 0 266 261 267 262 ?10 29 265 166 0
 267 268 262 .03 .0025 .024542358836173 18 267 48 0 269 264 270 265 ?10 29 268 1
65 0 270 271 265 .03 .00218931892565554 .0262773769955848 18 270 46 0 272 267 27
3 268 ?10 29 271 164 0 273 274 268 -.01 .00218931892565554 .02627737699558495 18
 273 44 0 275 270 276 271 ?10 29 274 163 0 276 277 271 -.01 .0025 .0245423588361
731 18 276 43 0 278 273 279 274 ?10 29 277 162 0 279 280 274 .00325 0 8816251284
32421e-32 18 279 39 0 281 276 282 277 ?10 29 280 161 0 282 283 277 .03525 0 1420
102637240162e-32 18 282 36 0 284 279 285 280 ?10 29 283 160 0 285 286 280 -.0287
5 0 384568966456044e-32 18 285 33 0 287 282 288 283 ?10 29 286 159 0 288 289 283
 -.06075 0 477766996826615e-32 18 288 30 0 290 285 291 286 ?10 29 289 158 0 291
 292 286 .03 0 .01025 18 291 26 0 293 288 294 289 ?10 29 292 157 0 294 295 289 .
05975 0 .01025 18 294 24 0 296 291 297 292 ?10 29 295 156 0 297 298 292 .05975 0
 -.01025 18 297 22 0 299 294 300 295 ?10 29 298 155 0 300 301 295 -.07975 0 -.01
025 18 300 20 0 302 297 303 298 ?10 29 301 154 0 303 304 298 -.07975 0 .01025 18
 303 18 0 305 300 306 301 ?10 29 304 153 0 306 307 301 -.01 0 .01025 18 306 16 0
 308 303 309 304 ?10 29 307 152 0 309 310 304 .03 -2692087900910355e-20 .0270436
061572807 18 309 11 0 219 306 311 307 ?10 29 310 151 0 311 312 307 .03 0 .026525
45168575275 18 311 9 0 313 309 314 310 ?10 29 312 150 0 314 315 310 -.01 0 .0265
2545168575285 18 314 7 0 316 311 317 312 ?10 29 315 149 0 317 0 312 -.01 -269208
7900910355e-20 .02704360615728085 18 317 6 0 318 314 0 315 ?10 17 318 0 319 320
 263 317 321 322 0 323 +15 319 131 0 320 324 0 17 320 0 319 325 318 309 323 326
 0 327 -17 263 0 319 318 325 261 215 328 0 329 +17 321 0 330 331 332 261 318 322
 0 0 -16 322 55 0 ?318 333 334 335 0 0 10 17 323 0 336 337 327 317 320 326 0 332
 +15 336 4 0 337 338 0 17 337 0 336 339 323 314 332 340 0 0 +17 327 0 336 323 33
9 309 341 342 0 0 +16 326 12 0 ?323 343 342 344 0 0 10 17 332 0 330 321 316 317
 337 340 0 0 -15 330 51 0 345 346 0 17 316 0 330 332 308 314 347 343 0 348 +16 3
40 5 0 ?337 349 0 350 0 0 10 16 349 8 0 ?339 342 340 351 0 0 10 31 350 185 0 340
 0 351 0 +-.01 -.005 .02652545168575285 -1 0 3552713678800465e-30 0 .99865304891
0927 .0518853341601509 .005 30 351 186 0 349 350 352 0 +-.01 0 .0265254516857528
5 1 0 -35527136788005e-28 31 352 187 0 342 351 344 0 +.03 -.005 .026525451685752
75 1 0 -35527136788005e-28 0 .998653048910927 .0518853341601509 .005 16 342 10 0
 ?327 326 349 352 0 0 10 30 344 188 0 326 352 353 0 +.03 -2692087900910355e-20 .
0270436061572807 -1 0 35527136788005e-28 30 353 189 0 343 344 354 0 +-.01 0 .010
25 3492586255567175e-30 0 1 16 343 15 0 ?316 355 326 353 0 0 10 30 354 190 0 355
 353 356 0 +-.07975 0 .01025 1 0 -152804889410774e-30 16 355 17 0 ?357 358 343 3
54 0 0 10 31 356 191 0 358 354 359 0 +-.07975 0 2997602166487925e-32 0 1 0 0 0 1
 .01025 16 358 19 0 ?360 361 355 356 0 0 10 30 359 192 0 361 356 362 0 +.05975 0
 -.01025 -1 0 2546748156846235e-31 16 361 21 0 ?363 364 358 359 0 0 10 31 362 19
3 0 364 359 365 0 +.05975 0 77715611723761e-31 0 1 0 0 0 -1 .01025 16 364 23 0 ?
366 367 361 362 0 0 10 30 365 194 0 367 362 368 0 +.03 0 .01025 1 0 0 16 367 25
 0 ?369 370 364 365 0 0 10 30 368 195 0 370 365 371 0 +.03 0 .01025 349258625556
7205e-30 0 1 16 370 27 0 ?313 372 367 368 0 0 10 31 371 196 0 372 368 373 0 +-.0
58 0 4440892098500625e-33 0 1 0 1 0 0 .00275 16 372 29 0 ?290 374 370 371 0 0 10
 31 373 197 0 374 371 375 0 +-.026 0 3508911794794915e-33 0 1 0 1 0 0 .00275 16
 374 32 0 ?287 376 372 373 0 0 10 31 375 198 0 376 373 377 0 +.038 0 13864248502
6361e-31 0 1 0 1 0 0 .00275 16 376 35 0 ?284 378 374 375 0 0 10 31 377 199 0 378
 375 379 0 +.006 0 847947341455869e-32 0 1 0 1 0 0 .00275 16 378 38 0 ?281 380 3
76 377 0 0 10 31 379 200 0 380 377 381 0 +-.01 -.0025 .0245423588361731 1 0 -355
2713678800465e-30 0 .984343381430258 .1762614746178135 .005 16 380 42 0 ?382 383
 378 379 0 0 10 30 381 201 0 383 379 384 0 +-.01 .00218931892565554 .02627737699
558495 1 0 -35527136788005e-28 16 383 45 0 ?385 386 380 381 0 0 10 31 384 202 0
 386 381 387 0 +.03 -.0025 .024542358836173 -1 0 35527136788005e-28 0 .984343381
430258 .1762614746178135 .005 16 386 47 0 ?388 389 383 384 0 0 10 30 387 203 0 3
89 384 390 0 +.03 .0025 .024542358836173 -1 0 35527136788005e-28 16 389 49 0 ?39
1 392 386 387 0 0 10 30 390 204 0 392 387 393 0 +-.01 .0025 .01025 3604327944259
805e-30 0 1 16 392 52 0 ?278 334 389 390 0 0 10 30 393 205 0 334 390 335 0 +-.01
 0 .01025 0 1 0 16 334 54 0 ?394 322 392 393 0 0 10 31 335 206 0 322 393 395 0 +
-.01 .00594077406617997 .0276653915231144 1 0 -3552713678800465e-30 -31610228631
9153e-29 -.456450443548232 -.88974883679869 .006 30 395 207 0 333 335 396 0 +-.0
1 .003202071404890575 .02475 -3665461065297025e-30 0 -1 16 333 57 0 ?329 397 322
 395 0 0 10 31 396 208 0 397 395 398 0 +-.01 .00594077406617997 .027665391523114
4 -1 0 3552713678800465e-30 258938783580674e-29 .684675665322349 .72884788077856
1 .004 16 397 59 0 ?399 400 333 396 0 0 10 30 398 209 0 400 396 401 0 +.03 .0025
 .01025 348004077376812e-29 0 1 16 400 62 0 ?269 402 397 398 0 0 10 30 401 210 0
 402 398 403 0 +.03 .0025 .01025 1 0 0 16 402 64 0 ?404 405 400 401 0 0 10 31 40
3 211 0 405 401 406 0 +.05975 .0025 77715611723761e-31 0 -1 0 0 0 -1 .01025 16 4
05 66 0 ?407 408 402 403 0 0 10 30 406 212 0 408 403 409 0 +.05975 .0025 -.01025
 -1 0 2546748156846235e-31 16 408 68 0 ?410 411 405 406 0 0 10 31 409 213 0 411
 406 412 0 +-.07975 .0025 2997602166487925e-32 0 -1 0 0 0 1 .01025 16 411 70 0 ?
413 414 408 409 0 0 10 30 412 214 0 414 409 415 0 +-.07975 .0025 .01025 1 0 -152
804889410774e-30 16 414 72 0 ?266 416 411 412 0 0 10 31 415 215 0 416 412 417 0
 +-.058 .0025 4440892098500625e-33 0 1 0 -1 0 0 .00475 16 416 74 0 ?243 418 414
 415 0 0 10 31 417 216 0 418 415 419 0 +.006 .0025 847947341455869e-32 0 1 0 -1
 0 0 .00475 16 418 77 0 ?240 420 416 417 0 0 10 31 419 217 0 420 417 421 0 +.038
 .0025 138642485026361e-31 0 1 0 -1 0 0 .00475 16 420 80 0 ?237 422 418 419 0 0
 10 31 421 218 0 422 419 423 0 +-.026 .0025 3508911794794915e-33 0 1 0 -1 0 0 .0
0475 16 422 83 0 ?234 424 420 421 0 0 10 30 423 219 0 424 421 425 0 +-.07975 .00
25 -.01025 0 -1 0 16 424 87 0 ?302 426 422 423 0 0 10 30 425 220 0 426 423 427 0
 +-.07975 0 .01025 0 1 0 16 426 88 0 ?246 428 424 425 0 0 10 30 427 221 0 428 42
5 429 0 +.05975 0 -.01025 0 1 0 16 428 91 0 ?252 430 426 427 0 0 10 30 429 222 0
 430 427 431 0 +.05975 .0025 .01025 0 -1 0 16 430 94 0 ?296 432 428 429 0 0 10 3
0 431 223 0 432 429 433 0 +.03 0 .01025 0 1 0 16 432 97 0 ?258 434 430 431 0 0 1
0 31 433 224 0 434 431 435 0 +-.058 .000500000000000007 4440892098500625e-33 0 -
1 0 -1 0 0 .00275 16 434 100 0 ?231 436 432 433 0 0 10 31 435 225 0 436 433 437
 0 +-.026 .000500000000000007 3508911794794915e-33 0 -1 0 -1 0 0 .00275 16 436 1
08 0 ?228 438 434 435 0 0 10 31 437 226 0 438 435 439 0 +.006 .00050000000000000
7 847947341455869e-32 0 -1 0 -1 0 0 .00275 16 438 116 0 ?225 440 436 437 0 0 10
 31 439 227 0 440 437 441 0 +.038 .000500000000000007 138642485026361e-31 0 -1 0
 -1 0 0 .00275 16 440 124 0 ?220 442 438 439 0 0 10 31 441 228 0 442 439 443 0 +
.03 .00594077406617997 .02766539152311425 1 0 -35527136788005e-28 -3161022863191
54e-29 -.456450443548232 -.88974883679869 .006 16 442 132 0 ?219 328 440 441 0 0
 10 30 443 229 0 328 441 444 0 +.03 .003202071404890575 .0223268985023221 -1 0 3
5527136788005e-28 16 328 134 0 ?263 445 442 443 0 0 10 30 444 230 0 445 443 206
 0 +.03 .003202071404890575 .02475 -1 0 35527136788005e-28 16 445 137 0 ?214 210
 328 444 0 0 10 31 206 231 0 210 444 20 0 +.03 .00594077406617997 .0276653915231
1425 -1 0 35527136788005e-28 258938783580675e-29 .684675665322349 .7288478807785
61 .004 16 210 139 0 ?216 23 445 206 0 0 10 17 216 0 218 209 446 24 272 210 0 44
7 +15 218 144 0 446 448 0 17 446 0 218 216 269 270 388 386 0 385 -17 272 0 449 4
50 447 270 216 210 0 446 -17 447 0 449 272 399 24 214 445 0 0 -15 449 136 0 450
 451 0 17 399 0 449 447 450 259 275 397 0 331 +17 214 0 213 329 211 259 447 445
 0 399 +15 213 141 0 329 452 0 17 329 0 213 215 214 261 331 333 0 321 +17 215 0
 213 211 329 212 263 328 0 325 -17 331 0 330 275 321 259 329 333 0 0 -17 275 0 3
30 345 331 273 399 397 0 450 -17 345 0 330 453 275 276 382 380 0 0 -17 450 0 449
 399 272 273 385 383 0 382 -17 385 0 454 388 382 270 450 383 0 0 +17 382 0 454 3
85 391 273 345 380 0 0 +15 454 41 0 382 455 0 17 391 0 454 382 388 276 456 389 0
 345 +17 388 0 454 391 385 267 446 386 0 0 +17 456 0 457 458 278 267 391 389 0 3
88 -15 457 61 0 456 459 0 17 458 0 457 404 456 256 269 400 0 0 -17 278 0 457 456
 266 276 453 392 0 391 +17 266 0 457 278 460 264 461 414 0 394 +17 453 0 330 308
 345 264 278 392 0 0 -17 308 0 330 316 453 306 394 334 0 357 -17 394 0 462 461 3
57 264 308 334 0 453 +17 357 0 462 394 305 306 463 355 0 347 +15 462 146 0 305 2
03 0 17 305 0 462 357 461 303 246 426 0 360 -17 463 0 464 465 347 303 357 355 0
 0 -17 347 0 464 463 348 306 316 343 0 0 -15 464 14 0 348 466 0 17 348 0 464 347
 313 314 339 349 0 337 -17 313 0 464 348 467 311 468 370 0 341 +17 339 0 336 327
 337 311 348 349 0 0 +17 467 0 464 313 469 291 369 367 0 0 -17 468 0 218 258 341
 291 313 370 0 467 -17 341 0 218 468 219 311 327 342 0 339 -17 219 0 218 341 209
 309 325 442 0 320 +17 325 0 319 263 320 212 219 442 0 0 -17 258 0 218 269 468 2
56 293 432 0 470 +17 269 0 218 446 258 267 458 400 0 456 +17 293 0 471 369 470 2
91 258 432 0 468 -17 470 0 471 293 255 256 404 402 0 458 -15 471 96 0 255 472 0
 17 255 0 471 470 369 253 296 430 0 407 -17 404 0 457 473 458 253 470 402 0 0 +1
7 473 0 457 410 404 250 407 405 0 0 -17 410 0 457 460 473 247 474 408 0 0 +17 40
7 0 475 296 252 253 473 405 0 404 +15 475 93 0 407 476 0 17 296 0 475 366 407 29
4 255 430 0 369 +17 252 0 475 407 366 250 299 428 0 474 +17 366 0 475 252 296 29
7 469 364 0 477 +17 299 0 478 363 474 297 252 428 0 366 -17 474 0 478 299 249 25
0 410 408 0 473 -15 478 90 0 249 479 0 17 249 0 478 474 363 247 302 424 0 413 -1
7 363 0 478 249 299 300 477 361 0 465 +17 302 0 480 360 413 300 249 424 0 363 +1
7 413 0 480 302 246 247 460 411 0 410 +15 480 86 0 413 481 0 17 246 0 480 413 36
0 244 305 426 0 461 +17 460 0 457 266 410 244 413 411 0 0 -17 360 0 480 246 302
 303 465 358 0 463 +17 461 0 462 305 394 244 266 414 0 460 -17 465 0 464 477 463
 300 360 358 0 0 -17 477 0 464 469 465 297 363 361 0 0 -17 469 0 464 467 477 294
 366 364 0 0 -14 481 85 482 ?459 479 480 18 483 +0 0 459 479 208 81 1 482 274 10
4 481 484 0 485 486 487 14 459 60 485 ?346 481 488 18 489 +0 0 346 481 208 14 47
9 89 486 ?481 476 478 18 490 +0 0 481 476 208 51 483 238 0 481 489 490 0 +-.0797
5 0 2997602166487925e-32 0 -1 0 .01025 0 0 1 13 208 2 0 0 0 0 0 0 22 203 14 203
 145 491 ?448 0 462 18 19 +0 0 448 0 208 81 1 491 322 104 203 492 0 493 0 494 14
 448 143 493 ?452 203 218 18 205 +0 0 452 203 208 81 1 493 319 104 448 495 0 496
 491 497 14 452 140 496 ?451 448 213 18 498 +0 0 451 448 208 50 205 253 0 448 49
8 19 0 +.03 0 .02275 1 0 -35527136788005e-28 -35527136788005e-28 0 -1 50 498 252
 0 452 499 205 0 +.03 .003202071404890575 .0223268985023221 0 -1 0 3552713678800
5e-28 0 1 51 499 251 0 451 500 498 0 +.03 .00594077406617997 .02766539152311425
 1 0 -355271367880049e-29 .004 258938783580674e-29 .684675665322349 .72884788077
8561 14 451 135 501 ?324 452 449 18 499 -0 0 324 452 208 51 500 250 0 324 502 49
9 0 +.03 .00594077406617997 .02766539152311425 -1 0 355271367880049e-29 .006 -31
6102286319153e-29 -.456450443548232 -.88974883679869 14 324 130 503 ?504 451 319
 18 500 +0 0 504 451 208 51 502 249 0 504 505 500 0 +.038 -.163850718701869 1386
42485026361e-31 0 -1 0 .00275 1 0 0 14 504 127 506 ?507 324 508 18 502 -0 0 507
 324 208 52 505 248 0 507 509 502 0 +.038 .0015 138642485026361e-31 0 1 0 .00375
 .707106781186549 .707106781186546 -1 0 0 14 507 122 510 ?511 504 512 18 505 -0
 0 511 504 208 51 509 247 0 511 513 505 0 +.006 -.163850718701869 84794734145586
9e-32 0 -1 0 .00275 1 0 0 14 511 119 514 ?515 507 516 18 509 -0 0 515 507 208 52
 513 246 0 515 517 509 0 +.006 .0015 847947341455869e-32 0 1 0 .00375 .707106781
186549 .707106781186546 -1 0 0 14 515 114 518 ?519 511 520 18 513 -0 0 519 511 2
08 51 517 245 0 519 521 513 0 +-.026 -.163850718701869 3508911794794915e-33 0 -1
 0 .00275 1 0 0 14 519 111 522 ?523 515 524 18 517 -0 0 523 515 208 52 521 244 0
 523 525 517 0 +-.026 .0015 3508911794794915e-33 0 1 0 .00375 .707106781186549 .
707106781186546 -1 0 0 14 523 106 526 ?527 519 528 18 521 -0 0 527 519 208 51 52
5 243 0 527 529 521 0 +-.058 -.163850718701869 4440892098500625e-33 0 -1 0 .0027
5 1 0 0 14 527 103 530 ?531 523 532 18 525 -0 0 531 523 208 52 529 242 0 531 533
 525 0 +-.058 .0015 4440892098500625e-33 0 1 0 .00375 .707106781186549 .70710678
1186546 -1 0 0 14 531 98 534 ?472 527 535 18 529 -0 0 472 527 208 50 533 241 0 4
72 536 529 0 +.03 0 .01025 0 0 1 1 0 0 14 472 95 537 ?476 531 471 18 533 +0 0 47
6 531 208 51 536 240 0 476 490 533 0 +.05975 0 77715611723761e-31 0 -1 0 .01025
 0 0 -1 14 476 92 538 ?479 472 475 18 536 +0 0 479 472 208 50 490 239 0 479 483
 536 0 +.07 0 -.01025 -2498001805406605e-31 0 -1 -1 0 2498001805406605e-31 81 1
 538 280 104 476 539 0 486 537 540 81 2 539 279 136 476 541 538 542 543 544 545
 81 1 486 277 104 479 542 0 482 538 546 81 1 537 283 104 472 543 0 538 534 547 8
3 1 540 0 81 2 543 282 136 472 548 537 539 549 550 551 81 1 534 286 104 531 549
 0 537 530 552 83 1 547 0 81 2 549 285 136 531 553 534 543 554 555 556 81 1 530
 289 104 527 554 0 534 526 557 83 1 552 0 81 2 554 288 136 527 558 530 549 559 5
60 561 81 1 526 292 104 523 559 0 530 522 562 83 1 557 0 81 2 559 291 136 523 56
3 526 554 564 565 566 81 1 522 295 104 519 564 0 526 518 567 83 1 562 0 81 2 564
 294 136 519 568 522 559 569 570 571 81 1 518 298 104 515 569 0 522 514 572 83 1
 567 0 81 2 569 297 136 515 573 518 564 574 575 576 81 1 514 301 104 511 574 0 5
18 510 577 83 1 572 0 81 2 574 300 136 511 578 514 569 579 580 581 81 1 510 304
 104 507 579 0 514 506 582 83 1 577 0 81 2 579 303 136 507 583 510 574 584 585 5
86 81 1 506 307 104 504 584 0 510 503 587 83 1 582 0 81 2 584 306 136 504 588 50
6 579 589 590 591 81 1 503 310 104 324 589 0 506 501 592 83 1 587 0 81 2 589 309
 136 324 593 503 584 594 595 596 81 1 501 313 104 451 594 0 503 496 597 83 1 592
 0 81 2 594 312 136 451 598 501 589 599 600 601 81 1 496 316 104 452 599 0 501 4
93 602 83 1 597 0 81 2 599 315 136 452 603 496 594 495 604 605 83 1 602 0 81 1 6
03 314 143 452 0 599 598 606 607 81 2 495 318 136 448 606 493 599 492 608 609 83
 4 604 .72944252070442 0 .72944252070442 .72944252070442 82 1 605 1 81 1 606 317
 143 448 0 495 603 610 611 81 2 492 321 136 203 610 491 495 0 612 613 83 4 608 .
72944252070442 0 .72944252070442 .72944252070442 82 1 609 1 81 1 610 320 143 203
 0 492 606 0 614 83 4 612 .72944252070442 0 .72944252070442 .72944252070442 82 1
 613 1 83 3 614 .745098039215686 .737254901960784 .729411764705882 83 3 611 .745
098039215686 .737254901960784 .729411764705882 81 1 598 311 143 451 0 594 593 60
3 615 83 3 607 .745098039215686 .737254901960784 .729411764705882 81 1 593 308 1
43 324 0 589 588 598 616 83 3 615 .745098039215686 .737254901960784 .72941176470
5882 81 1 588 305 143 504 0 584 583 593 617 83 3 616 .745098039215686 .737254901
960784 .729411764705882 81 1 583 302 143 507 0 579 578 588 618 83 3 617 .7450980
39215686 .737254901960784 .729411764705882 81 1 578 299 143 511 0 574 573 583 61
9 83 3 618 .745098039215686 .737254901960784 .729411764705882 81 1 573 296 143 5
15 0 569 568 578 620 83 3 619 .745098039215686 .737254901960784 .729411764705882
 81 1 568 293 143 519 0 564 563 573 621 83 3 620 .745098039215686 .7372549019607
84 .729411764705882 81 1 563 290 143 523 0 559 558 568 622 83 3 621 .74509803921
5686 .737254901960784 .729411764705882 81 1 558 287 143 527 0 554 553 563 623 83
 3 622 .745098039215686 .737254901960784 .729411764705882 81 1 553 284 143 531 0
 549 548 558 624 83 3 623 .745098039215686 .737254901960784 .729411764705882 81
 1 548 281 143 472 0 543 541 553 625 83 3 624 .745098039215686 .737254901960784
 .729411764705882 81 1 541 278 143 476 0 539 626 548 627 83 3 625 .7450980392156
86 .737254901960784 .729411764705882 81 1 626 275 143 479 0 542 628 541 629 83 3
 627 .745098039215686 .737254901960784 .729411764705882 81 2 542 276 136 479 626
 486 484 539 630 631 81 1 628 272 143 481 0 484 632 626 633 83 3 629 .7450980392
15686 .737254901960784 .729411764705882 81 2 484 273 136 481 628 482 634 542 635
 636 81 1 632 269 143 459 0 634 637 628 638 83 3 633 .745098039215686 .737254901
960784 .729411764705882 81 2 634 270 136 459 632 485 639 484 640 641 81 1 637 26
6 143 346 0 639 642 632 643 83 3 638 .745098039215686 .737254901960784 .72941176
4705882 14 346 50 644 ?455 459 330 18 645 +0 0 455 459 208 81 2 639 267 136 346
 637 644 646 634 647 648 81 1 642 263 143 455 0 646 649 637 650 83 3 643 .745098
039215686 .737254901960784 .729411764705882 14 455 40 651 ?466 346 454 18 652 +0
 0 466 346 208 81 2 646 264 136 455 642 651 653 639 654 655 81 1 649 260 143 466
 0 653 656 642 657 83 3 650 .745098039215686 .737254901960784 .729411764705882 1
4 466 13 658 ?338 455 659 18 660 +0 0 338 455 208 81 2 653 261 136 466 649 658 6
61 646 662 663 81 1 656 257 143 338 0 661 0 649 664 83 3 657 .745098039215686 .7
37254901960784 .729411764705882 14 338 3 665 ?0 466 336 18 666 -0 0 0 466 208 81
 2 661 258 136 338 656 665 0 653 667 668 83 3 664 .745098039215686 .737254901960
784 .729411764705882 81 1 665 259 104 338 661 0 0 658 669 83 4 667 .729442520704
42 0 .72944252070442 .72944252070442 82 1 668 1 81 1 658 262 104 466 653 0 665 6
51 670 83 1 669 0 81 1 651 265 104 455 646 0 658 644 671 83 1 670 0 81 1 644 268
 104 346 639 0 651 485 672 83 1 671 0 81 1 485 271 104 459 634 0 644 482 673 83
 1 672 0 83 1 673 0 51 666 233 0 338 0 660 0 +.03 -.005 .02652545168575275 -1 0
 355271367880049e-29 .005 1843337363999025e-31 .998653048910927 .051885334160150
9 50 660 234 0 466 666 652 0 +-.01 0 .00625000000000007 0 -1 0 0 0 1 51 652 235
 0 455 660 645 0 +.03 -.0025 .024542358836173 -1 0 355271367880049e-29 .005 6262
06551920251e-30 .984343381430258 .1762614746178135 50 645 236 0 346 652 489 0 +-
.01 .00594077406617997 .0276653915231144 -1 0 3552713678800465e-30 3552713678800
465e-30 0 1 50 489 237 0 459 645 483 0 +.03 .0025 .02562552049152835 0 1 0 -3552
7136788005e-28 0 -1 83 4 662 .72944252070442 0 .72944252070442 .72944252070442 8
2 1 663 1 15 659 37 0 281 466 674 17 281 0 659 281 281 279 675 378 0 675 +15 674
 34 0 284 466 676 17 284 0 674 284 284 282 677 376 0 677 +15 676 31 0 287 466 67
8 17 287 0 676 287 287 285 679 374 0 679 +15 678 28 0 290 466 464 17 290 0 678 2
90 290 288 680 372 0 680 +17 680 0 681 680 680 288 290 372 0 0 -15 681 104 0 680
 527 0 17 679 0 682 679 679 285 287 374 0 0 -15 682 112 0 679 519 0 17 677 0 683
 677 677 282 284 376 0 0 -15 683 128 0 677 504 0 17 675 0 684 675 675 279 281 37
8 0 0 -15 684 120 0 675 511 0 83 4 654 .72944252070442 0 .72944252070442 .729442
52070442 82 1 655 1 83 4 647 .72944252070442 0 .72944252070442 .72944252070442 8
2 1 648 1 83 4 640 .72944252070442 0 .72944252070442 .72944252070442 82 1 641 1
 83 4 635 .72944252070442 0 .72944252070442 .72944252070442 82 1 636 1 83 4 630
 .72944252070442 0 .72944252070442 .72944252070442 82 1 631 1 83 4 600 .72944252
070442 0 .72944252070442 .72944252070442 82 1 601 1 83 4 595 .72944252070442 0 .
72944252070442 .72944252070442 82 1 596 1 83 4 590 .72944252070442 0 .7294425207
0442 .72944252070442 82 1 591 1 83 4 585 .72944252070442 0 .72944252070442 .7294
4252070442 82 1 586 1 83 4 580 .72944252070442 0 .72944252070442 .72944252070442
 82 1 581 1 83 4 575 .72944252070442 0 .72944252070442 .72944252070442 82 1 576
 1 83 4 570 .72944252070442 0 .72944252070442 .72944252070442 82 1 571 1 83 4 56
5 .72944252070442 0 .72944252070442 .72944252070442 82 1 566 1 83 4 560 .7294425
2070442 0 .72944252070442 .72944252070442 82 1 561 1 83 4 555 .72944252070442 0
 .72944252070442 .72944252070442 82 1 556 1 83 4 550 .72944252070442 0 .72944252
070442 .72944252070442 82 1 551 1 83 1 546 0 83 4 544 .72944252070442 0 .7294425
2070442 .72944252070442 82 1 545 1 15 535 102 0 243 531 685 17 243 0 535 243 243
 241 686 416 0 686 +15 685 99 0 231 531 0 17 231 0 685 231 231 229 687 434 0 687
 +17 687 0 532 687 687 229 231 434 0 0 -15 532 105 0 687 527 681 17 686 0 688 68
6 686 241 243 416 0 0 -15 688 73 0 686 459 457 15 528 110 0 234 523 689 17 234 0
 528 234 234 232 690 422 0 690 +15 689 107 0 228 523 0 17 228 0 689 228 228 226
 691 436 0 691 +17 691 0 524 691 691 226 228 436 0 0 -15 524 113 0 691 519 682 1
7 690 0 488 690 690 232 234 422 0 0 -15 488 82 0 690 459 692 15 692 79 0 693 459
 694 17 693 0 692 693 693 235 237 420 0 0 -15 694 76 0 695 459 688 17 695 0 694
 695 695 238 240 418 0 0 -17 240 0 520 240 240 238 695 418 0 695 +15 520 118 0 2
40 515 696 15 696 115 0 225 515 0 17 225 0 696 225 225 221 697 438 0 697 +17 697
 0 516 697 697 221 225 438 0 0 -15 516 121 0 697 511 684 17 237 0 512 237 237 23
5 693 420 0 693 +15 512 126 0 237 507 698 15 698 123 0 220 507 0 17 220 0 698 22
0 220 217 699 440 0 699 +17 699 0 508 699 699 217 220 440 0 0 -15 508 129 0 699
 504 683 83 1 497 0 83 1 494 0 83 1 487 0 17 369 0 471 255 293 294 467 367 0 469
 +19 204 147 0 10 0 22 18 S0 74 20 202 6 0 0 700 200 610 492 491 15 0 0 0 0 0 0
 0 0 0 0 0 0 0 0 81 1 700 255 192 10 0 200 0 0 701 81 1 200 256 194 10 700 15 0
 0 702 83 1 702 0 83 3 701 .745098039215686 .737254901960784 .729411764705882 84
 7 201 Sólido184 23 14 Placa soporte-Bisagra:274 20 8 1 0 0 9 0 0 0 0 0 0 0 0 0
 0 0 0 0 0 0 0 0 0 0 84 18 7 Ensamblaje-Bisagra1 0 
